HIERARCHY
ROOT Hips
{
  OFFSET 5.72205e-005 65.662 3.42586
  CHANNELS 6 Xposition Yposition Zposition Zrotation Xrotation Yrotation
  JOINT Chest
  {
    OFFSET 0 8.7983 -4.7612
    CHANNELS 3 Zrotation Xrotation Yrotation
    JOINT Chest2
    {
      OFFSET 0 8.0291 0.4195
      CHANNELS 3 Zrotation Xrotation Yrotation
      JOINT Chest3
      {
        OFFSET 0 9.9351 -2.2114
        CHANNELS 3 Zrotation Xrotation Yrotation
        JOINT Neck
        {
          OFFSET 0 22.3885 -0.4656
          CHANNELS 3 Zrotation Xrotation Yrotation
          JOINT Head
          {
            OFFSET -0.0001 12.643 3.4389
            CHANNELS 3 Zrotation Xrotation Yrotation
            End Site
            {
              OFFSET 0.0001 17.6655 0.5274
            }
          }
        }
        JOINT LeftCollar
        {
          OFFSET 2.2603 21.606 7.4023
          CHANNELS 3 Zrotation Xrotation Yrotation
          JOINT LeftShoulder
          {
            OFFSET 13.5163 -1.1332 -5.0146
            CHANNELS 3 Zrotation Xrotation Yrotation
            JOINT LeftElbow
            {
              OFFSET -0.0995 -28.05 -0.2431
              CHANNELS 3 Zrotation Xrotation Yrotation
              JOINT LeftWrist
              {
                OFFSET 0.0679 -23.3996 -0.1402
                CHANNELS 3 Zrotation Xrotation Yrotation
                JOINT LeftFinger1
                {
                  OFFSET 0.7932 -9.069 2.5189
                  CHANNELS 3 Zrotation Xrotation Yrotation
                  JOINT LeftFinger11
                  {
                    OFFSET -0.8272 -3.3923 0.5977
                    CHANNELS 3 Zrotation Xrotation Yrotation
                    JOINT LeftFinger12
                    {
                      OFFSET -0.5649 -2.3158 0.4082
                      CHANNELS 3 Zrotation Xrotation Yrotation
                      End Site
                      {
                        OFFSET -0.4919 -1.6479 0.2673
                      }
                    }
                  }
                }
                JOINT LeftFinger2
                {
                  OFFSET 0.9159 -9.2044 0.2193
                  CHANNELS 3 Zrotation Xrotation Yrotation
                  JOINT LeftFinger21
                  {
                    OFFSET 0.0117 -4.1944 -0.0248
                    CHANNELS 3 Zrotation Xrotation Yrotation
                    JOINT LeftFinger22
                    {
                      OFFSET 0.0071 -2.3249 -0.0142
                      CHANNELS 3 Zrotation Xrotation Yrotation
                      End Site
                      {
                        OFFSET -0.1475 -2.0882 0.0028
                      }
                    }
                  }
                }
                JOINT LeftFinger3
                {
                  OFFSET 0.6113 -8.7231 -2.0637
                  CHANNELS 3 Zrotation Xrotation Yrotation
                  JOINT LeftFinger31
                  {
                    OFFSET -0.1927 -3.8059 -0.2383
                    CHANNELS 3 Zrotation Xrotation Yrotation
                    JOINT LeftFinger32
                    {
                      OFFSET -0.1091 -2.1688 -0.1362
                      CHANNELS 3 Zrotation Xrotation Yrotation
                      End Site
                      {
                        OFFSET -0.2358 -1.9176 -0.0906
                      }
                    }
                  }
                }
                JOINT LeftFinger4
                {
                  OFFSET -0.6151 -8.0947 -3.5641
                  CHANNELS 3 Zrotation Xrotation Yrotation
                  JOINT LeftFinger41
                  {
                    OFFSET -0.4882 -2.341 -0.6462
                    CHANNELS 3 Zrotation Xrotation Yrotation
                    JOINT LeftFinger42
                    {
                      OFFSET -0.3575 -1.7167 -0.4742
                      CHANNELS 3 Zrotation Xrotation Yrotation
                      End Site
                      {
                        OFFSET -0.4187 -1.5237 -0.3496
                      }
                    }
                  }
                }
                JOINT LeftFinger0
                {
                  OFFSET -1.42 -1.8761 1.4223
                  CHANNELS 3 Zrotation Xrotation Yrotation
                  JOINT LeftFinger01
                  {
                    OFFSET -1.1471 -3.4929 2.6334
                    CHANNELS 3 Zrotation Xrotation Yrotation
                    JOINT LeftFinger02
                    {
                      OFFSET -0.823 -2.3 1.6571
                      CHANNELS 3 Zrotation Xrotation Yrotation
                      End Site
                      {
                        OFFSET -0.5822 -1.6914 1.1582
                      }
                    }
                  }
                }
              }
            }
          }
        }
        JOINT RightCollar
        {
          OFFSET -2.2603 21.606 7.4023
          CHANNELS 3 Zrotation Xrotation Yrotation
          JOINT RightShoulder
          {
            OFFSET -13.5187 -1.1334 -5.0155
            CHANNELS 3 Zrotation Xrotation Yrotation
            JOINT RightElbow
            {
              OFFSET 0.0994 -28.0499 -0.2431
              CHANNELS 3 Zrotation Xrotation Yrotation
              JOINT RightWrist
              {
                OFFSET -0.0679 -23.3996 -0.1402
                CHANNELS 3 Zrotation Xrotation Yrotation
                JOINT RightFinger1
                {
                  OFFSET -0.7932 -9.0691 2.5189
                  CHANNELS 3 Zrotation Xrotation Yrotation
                  JOINT RightFinger11
                  {
                    OFFSET 0.8272 -3.3923 0.5977
                    CHANNELS 3 Zrotation Xrotation Yrotation
                    JOINT RightFinger12
                    {
                      OFFSET 0.565 -2.3158 0.4082
                      CHANNELS 3 Zrotation Xrotation Yrotation
                      End Site
                      {
                        OFFSET 0.4919 -1.6479 0.2673
                      }
                    }
                  }
                }
                JOINT RightFinger2
                {
                  OFFSET -0.916 -9.2044 0.2193
                  CHANNELS 3 Zrotation Xrotation Yrotation
                  JOINT RightFinger21
                  {
                    OFFSET -0.0117 -4.1944 -0.0248
                    CHANNELS 3 Zrotation Xrotation Yrotation
                    JOINT RightFinger22
                    {
                      OFFSET -0.0071 -2.3249 -0.0142
                      CHANNELS 3 Zrotation Xrotation Yrotation
                      End Site
                      {
                        OFFSET 0.1475 -2.0882 0.0028
                      }
                    }
                  }
                }
                JOINT RightFinger3
                {
                  OFFSET -0.6113 -8.7231 -2.0637
                  CHANNELS 3 Zrotation Xrotation Yrotation
                  JOINT RightFinger31
                  {
                    OFFSET 0.1927 -3.8059 -0.2383
                    CHANNELS 3 Zrotation Xrotation Yrotation
                    JOINT RightFinger32
                    {
                      OFFSET 0.1091 -2.1688 -0.1362
                      CHANNELS 3 Zrotation Xrotation Yrotation
                      End Site
                      {
                        OFFSET 0.2358 -1.9176 -0.0906
                      }
                    }
                  }
                }
                JOINT RightFinger4
                {
                  OFFSET 0.6151 -8.0947 -3.564
                  CHANNELS 3 Zrotation Xrotation Yrotation
                  JOINT RightFinger41
                  {
                    OFFSET 0.4882 -2.341 -0.6462
                    CHANNELS 3 Zrotation Xrotation Yrotation
                    JOINT RightFinger42
                    {
                      OFFSET 0.3574 -1.7166 -0.4742
                      CHANNELS 3 Zrotation Xrotation Yrotation
                      End Site
                      {
                        OFFSET 0.4187 -1.5237 -0.3496
                      }
                    }
                  }
                }
                JOINT RightFinger0
                {
                  OFFSET 1.4199 -1.8761 1.4221
                  CHANNELS 3 Zrotation Xrotation Yrotation
                  JOINT RightFinger01
                  {
                    OFFSET 1.1472 -3.4929 2.6336
                    CHANNELS 3 Zrotation Xrotation Yrotation
                    JOINT RightFinger02
                    {
                      OFFSET 0.8229 -2.3 1.6571
                      CHANNELS 3 Zrotation Xrotation Yrotation
                      End Site
                      {
                        OFFSET 0.5822 -1.6914 1.1582
                      }
                    }
                  }
                }
              }
            }
          }
        }
      }
    }
  }
  JOINT RightHip
  {
    OFFSET -9.412 3.9771 -0.7758
    CHANNELS 3 Zrotation Xrotation Yrotation
    JOINT RightKnee
    {
      OFFSET -0.7531 -40.938 0
      CHANNELS 3 Zrotation Xrotation Yrotation
      JOINT RightAnkle
      {
        OFFSET 0 -40.1986 0
        CHANNELS 3 Zrotation Xrotation Yrotation
        JOINT RightToe
        {
          OFFSET 0 -4.4182 9.239
          CHANNELS 3 Zrotation Xrotation Yrotation
          End Site
          {
            OFFSET 0 0 6.1981
          }
        }
      }
    }
  }
  JOINT LeftHip
  {
    OFFSET 9.4119 3.9773 -0.7758
    CHANNELS 3 Zrotation Xrotation Yrotation
    JOINT LeftKnee
    {
      OFFSET 0.7532 -40.9383 0
      CHANNELS 3 Zrotation Xrotation Yrotation
      JOINT LeftAnkle
      {
        OFFSET 0 -40.1986 0
        CHANNELS 3 Zrotation Xrotation Yrotation
        JOINT LeftToe
        {
          OFFSET 0 -4.4182 9.239
          CHANNELS 3 Zrotation Xrotation Yrotation
          End Site
          {
            OFFSET 0 0 6.1981
          }
        }
      }
    }
  }
}
MOTION
Frames:	4
Frame Time:	0.0333333
5.72205e-005 65.662 3.42586 0 0 -0 0 0 -0 0 0 -0 0 0 -0 0 0 -0 0 0 -0 0 0 -12.5014 88.1196 14.2451 10.6914 -0.00160068 -0.00239207 0.000740045 -8.4365e-005 7.00714e-005 -9.52055e-007 9.93923e-017 -1.98785e-016 -1.59028e-015 9.93923e-017 -5.96354e-016 -1.59028e-015 -9.93923e-017 -5.96354e-016 -1.59028e-015 9.93923e-017 -1.98785e-016 -1.59028e-015 -0.0128176 0.00232552 8.52707e-005 9.93923e-017 5.96354e-016 -0 9.93923e-017 -1.98785e-016 -1.59028e-015 -0.0160551 0.00299681 0.000857156 -2.48481e-016 0 3.18055e-015 9.93923e-017 -1.98785e-016 -1.59028e-015 -0.0125865 0.0031206 0.00282719 0 1.98785e-016 -0 9.93923e-017 -1.98785e-016 -1.59028e-015 9.93923e-017 -5.96354e-016 -1.59028e-015 -9.93923e-017 -5.96354e-016 -1.59028e-015 -0.865644 0.16582 7.03859 -88.0329 10.2057 -10.5567 0.0015593 -0.00248883 -0.000788628 7.87605e-005 4.10553e-005 1.24965e-005 -3.97569e-016 -7.95139e-016 3.18055e-015 -1.98785e-016 -3.97569e-016 3.18055e-015 -1.98785e-016 0 3.18055e-015 -3.97569e-016 -7.95139e-016 3.18055e-015 0.0129473 0.00231697 -8.70038e-005 9.93923e-017 -7.95139e-016 1.59028e-015 -3.97569e-016 -7.95139e-016 3.18055e-015 0.0163314 0.00303369 -0.000872333 3.97569e-016 7.95139e-016 -3.18055e-015 -3.97569e-016 -7.95139e-016 3.18055e-015 0.0145763 0.00367772 -0.00326275 9.93923e-017 -3.97569e-016 -0 -3.97569e-016 -7.95139e-016 3.18055e-015 -1.98785e-016 -3.97569e-016 3.18055e-015 -1.98785e-016 0 3.18055e-015 3.42482 1.32465 -0.0626183 0.000117508 0.717283 0.000978199 -3.4257 -2.04197 -0.0604716 6.47761e-025 0 -0 -3.42483 1.34017 0.0627307 -0.000193936 0.682302 -0.0013703 3.42574 -2.02253 0.0595886 -8.45714e-024 0 -7.40531e-025 
7.59754 52.9016 11.2029 33.3344 -33.2878 0.000780314 -0.0497736 0.226288 -0.257597 -0.098515 0.452816 -0.515006 -0.0985277 0.452833 -0.51501 4.81364 -0.0280553 0.00617801 3.33287 0.044302 -0.00700593 11.8859 -2.99856 -31.7883 95.3279 -1.1279 41.8571 -7.49382 -6.36143 -3.87123 -2.5157 0.452677 -0.0705165 -1.82217e-006 6.31409e-006 -1.11488e-005 -4.41391e-032 -7.95139e-016 -3.18055e-015 -9.54166e-015 -7.95139e-016 -1.59028e-015 -1.82217e-006 6.31409e-006 -1.11488e-005 -0.0128534 0.00234896 9.892e-005 -6.36111e-015 -7.95139e-015 -3.18055e-015 -1.82217e-006 6.31409e-006 -1.11488e-005 -0.0159478 0.00299397 0.000865642 3.18055e-015 2.38542e-015 1.59028e-015 -1.82217e-006 6.31409e-006 -1.11488e-005 -0.0125776 0.00311508 0.00283295 -6.36111e-015 1.27222e-014 3.18055e-015 -1.82217e-006 6.31409e-006 -1.11488e-005 -4.41391e-032 -7.95139e-016 -3.18055e-015 -9.54166e-015 -7.95139e-016 -1.59028e-015 -12.64 0.525577 3.8172 -109.396 -11.4835 -15.1431 2.24396 -9.86498 0.497777 2.54648 0.459232 0.13328 -4.99257e-007 5.38848e-006 -2.85721e-006 1.69296e-006 -1.05429e-006 -2.2064e-007 -1.56579e-006 -4.31138e-006 5.32437e-007 -4.99257e-007 5.38848e-006 -2.85721e-006 0.0130415 0.00233198 -8.24642e-005 6.88782e-006 7.35283e-006 1.03955e-006 -4.99257e-007 5.38848e-006 -2.85721e-006 0.0163325 0.00303286 -0.000870934 -1.79427e-006 -3.42401e-006 5.42162e-006 -4.99257e-007 5.38848e-006 -2.85721e-006 0.0146412 0.00369296 -0.0032712 -8.56632e-006 -9.10632e-006 6.30352e-006 -4.99257e-007 5.38848e-006 -2.85721e-006 1.69296e-006 -1.05429e-006 -2.2064e-007 -1.56579e-006 -4.31138e-006 5.32437e-007 8.33329 -5.61168 1.6716 -4.15679 43.3174 6.80436 -4.1535 -0.383502 -0.517893 2.8517e-006 5.39714e-008 6.93776e-007 -5.50367 -43.54 2.65229 -4.68886 51.5528 7.59656 4.3168 -1.48072 0.889571 4.05359e-006 -3.9781e-006 1.07314e-006 
8.81281 40.3277 16.1131 66.6709 -66.5756 0.00324295 -0.0934247 0.451656 -0.516125 -0.182793 0.904138 -1.03154 -0.182789 0.904138 -1.03154 9.62737 -0.0564442 0.0128126 6.66578 0.0885785 -0.014006 21.9028 -4.96693 -51.192 102.234 -16.8572 72.7688 -15.0387 -12.7132 -7.72828 -5.03126 0.907767 -0.120899 2.38542e-015 6.36111e-015 -0 3.18055e-015 6.36111e-015 -3.18055e-015 -2.38542e-015 1.59028e-015 3.18055e-015 2.38542e-015 6.36111e-015 -0 -0.0128209 0.00231256 8.1431e-005 -1.67082e-006 5.89262e-006 6.79729e-006 2.38542e-015 6.36111e-015 -0 -0.0159998 0.00297154 0.000864003 -7.95139e-016 -7.95139e-015 1.27222e-014 2.38542e-015 6.36111e-015 -0 -0.0126309 0.0031221 0.00282878 -2.16861e-006 7.30317e-006 7.5618e-006 2.38542e-015 6.36111e-015 -0 3.18055e-015 6.36111e-015 -3.18055e-015 -2.38542e-015 1.59028e-015 3.18055e-015 -24.3766 0.88129 0.595722 -128.225 -34.0378 -18.7263 4.64139 -19.7128 1.33616 5.09207 0.923702 0.246067 -1.95587e-006 -1.90461e-006 2.5443e-006 -1.3398e-006 -8.57112e-007 4.79114e-006 -1.10583e-006 -7.2437e-007 2.56135e-006 -1.95587e-006 -1.90461e-006 2.5443e-006 0.0129706 0.00232089 -8.24075e-005 -9.01131e-006 -6.72171e-006 4.98591e-006 -1.95587e-006 -1.90461e-006 2.5443e-006 0.016372 0.00304466 -0.000871634 -1.95541e-006 -1.90392e-006 2.54417e-006 -1.95587e-006 -1.90461e-006 2.5443e-006 0.0146004 0.00368803 -0.00325907 -6.80423e-007 -3.80447e-006 2.56971e-006 -1.95587e-006 -1.90461e-006 2.5443e-006 -1.3398e-006 -8.57112e-007 4.79114e-006 -1.10583e-006 -7.2437e-007 2.56135e-006 13.6672 -12.2376 3.01052 -72.9975 78.6211 73.7495 -4.81258 0.31184 -1.50111 5.87605e-008 4.49704e-007 -8.25273e-007 27.149 -84.9512 38.5639 -135.631 78.5064 138.359 4.78648 1.12374 1.78345 -8.81583e-006 6.20775e-006 -4.88496e-006 
7.73175 28.099 17.3993 -108.489 -89.9945 161.509 -0.121108 0.648465 -0.69773 -0.23433 1.29836 -1.39421 -0.234328 1.29836 -1.39421 12.9968 8.7353e-005 -0.000193615 8.99858 1.89612e-006 4.80369e-006 28.0871 -5.45074 -64.6973 106.673 -27.8268 94.2769 -20.3861 -17.1855 -10.44 -6.88216 1.25917 -0.13798 1.11319e-014 -3.97569e-015 -6.36111e-015 1.59028e-015 3.97569e-015 3.18055e-015 3.18055e-015 7.95139e-016 -3.18055e-015 1.11319e-014 -3.97569e-015 -6.36111e-015 -0.0127895 0.00233191 8.43972e-005 1.59028e-015 -2.38542e-015 1.27222e-014 1.11319e-014 -3.97569e-015 -6.36111e-015 -0.0160046 0.00300132 0.000852627 -3.18055e-015 4.77083e-015 -3.18055e-015 1.11319e-014 -3.97569e-015 -6.36111e-015 -0.0125556 0.0031208 0.00281242 1.32417e-031 -7.95139e-016 9.54166e-015 1.11319e-014 -3.97569e-015 -6.36111e-015 1.59028e-015 3.97569e-015 3.18055e-015 3.18055e-015 7.95139e-016 -3.18055e-015 -32.57 1.12642 -1.65983 -138.84 -50.0959 -19.2748 6.48527 -26.5894 2.17503 6.87367 1.25174 0.31268 1.98785e-015 2.38542e-015 6.36111e-015 1.59028e-015 2.38542e-015 9.54166e-015 2.35417e-007 1.96912e-006 -1.52138e-006 1.98785e-015 2.38542e-015 6.36111e-015 0.012946 0.00231464 -8.806e-005 3.18055e-015 -1.59028e-015 -6.36111e-015 1.98785e-015 2.38542e-015 6.36111e-015 0.0163105 0.00302686 -0.000872594 2.35287e-007 1.96914e-006 -1.52136e-006 1.98785e-015 2.38542e-015 6.36111e-015 0.0145615 0.00367277 -0.00326254 -3.97569e-016 0 -6.36111e-015 1.98785e-015 2.38542e-015 6.36111e-015 1.59028e-015 2.38542e-015 9.54166e-015 2.35417e-007 1.96912e-006 -1.52138e-006 17.1705 -15.7745 3.04749 -150.994 59.3897 147.52 -5.31544 0.110673 -2.60219 -3.96281e-006 -2.75842e-006 -3.03969e-006 160.023 -64.7362 173.756 -167.038 47.3153 168.222 4.94453 1.76784 3.04234 -1.20411e-006 3.30442e-006 -3.44324e-006 
